<?xml version="1.0" encoding="UTF-8"?>
<!DOCTYPE svg PUBLIC "-//W3C//DTD SVG 1.1//EN" "http://www.w3.org/Graphics/SVG/1.1/DTD/svg11.dtd">
<svg xmlns="http://www.w3.org/2000/svg" version="1.1" width="3456px" height="4608px" style="shape-rendering:geometricPrecision; text-rendering:geometricPrecision; image-rendering:optimizeQuality; fill-rule:evenodd; clip-rule:evenodd" xmlns:xlink="http://www.w3.org/1999/xlink">
<g><path style="opacity:0.987" fill="#fefffe" d="M 2481.5,1316.5 C 2491.35,1318.68 2500.85,1322.01 2510,1326.5C 2525.76,1334.63 2541.6,1342.63 2557.5,1350.5C 2567.48,1354.58 2577.81,1357.58 2588.5,1359.5C 2605.54,1363.3 2622.87,1365.46 2640.5,1366C 2671.83,1365.83 2703.16,1365.83 2734.5,1366C 2760.54,1370.89 2783.54,1381.89 2803.5,1399C 2820.25,1410.78 2835.41,1424.28 2849,1439.5C 2854.42,1445.75 2859.26,1452.42 2863.5,1459.5C 2870.16,1449.59 2873.16,1438.59 2872.5,1426.5C 2872.02,1417.83 2871.52,1409.17 2871,1400.5C 2869.7,1400.03 2868.2,1400.03 2866.5,1400.5C 2866.29,1398.86 2866.62,1397.36 2867.5,1396C 2871.17,1393.83 2874.84,1391.66 2878.5,1389.5C 2885.09,1398.13 2893.09,1405.3 2902.5,1411C 2916.31,1416.38 2930.14,1421.55 2944,1426.5C 2960.77,1434.27 2974.1,1445.94 2984,1461.5C 2990.45,1473.54 2996.12,1485.87 3001,1498.5C 3002.15,1494.05 3003.49,1489.71 3005,1485.5C 3005.54,1476.95 3006.87,1468.62 3009,1460.5C 3012.63,1463.75 3015.8,1467.42 3018.5,1471.5C 3027.82,1485.64 3037.66,1499.3 3048,1512.5C 3049.57,1502.86 3048.4,1493.69 3044.5,1485C 3033.76,1470.59 3021.26,1457.76 3007,1446.5C 3005.99,1444.98 3005.49,1443.31 3005.5,1441.5C 3029.2,1442.86 3048.7,1452.53 3064,1470.5C 3078.93,1490.92 3090.26,1513.25 3098,1537.5C 3103.45,1548.23 3109.45,1558.56 3116,1568.5C 3115.25,1559.53 3114.25,1550.53 3113,1541.5C 3109.28,1524.18 3106.12,1506.68 3103.5,1489C 3103.38,1486.26 3104.38,1485.43 3106.5,1486.5C 3117.2,1519.6 3128.36,1552.6 3140,1585.5C 3141.42,1575.91 3143.75,1566.57 3147,1557.5C 3149.92,1552.04 3152.42,1546.37 3154.5,1540.5C 3155.74,1539.64 3157.07,1538.98 3158.5,1538.5C 3160.06,1540.96 3161.06,1543.62 3161.5,1546.5C 3165.93,1578.04 3171.09,1609.37 3177,1640.5C 3182.23,1631.8 3186.9,1622.8 3191,1613.5C 3192,1612.17 3193,1612.17 3194,1613.5C 3196.05,1633.01 3199.22,1652.34 3203.5,1671.5C 3208.99,1684.8 3213.16,1698.47 3216,1712.5C 3216.57,1729.59 3215.07,1746.42 3211.5,1763C 3212.77,1771.49 3214.43,1779.99 3216.5,1788.5C 3233.55,1823.94 3250.05,1859.6 3266,1895.5C 3283.74,1940.6 3296.9,1987.1 3305.5,2035C 3313.63,2090.53 3313.47,2146.03 3305,2201.5C 3302.33,2216.83 3299.67,2232.17 3297,2247.5C 3290.26,2257.55 3283.59,2267.55 3277,2277.5C 3273.08,2291.76 3269.41,2306.1 3266,2320.5C 3259.08,2332 3252.41,2343.67 3246,2355.5C 3243.28,2356.44 3240.45,2356.78 3237.5,2356.5C 3237.72,2362.32 3236.89,2367.99 3235,2373.5C 3232.18,2380.41 3229.51,2387.41 3227,2394.5C 3218.27,2412.97 3209.27,2431.3 3200,2449.5C 3182.46,2479.24 3167.63,2510.24 3155.5,2542.5C 3145.08,2575.75 3134.08,2608.75 3122.5,2641.5C 3119.08,2648.71 3115.92,2656.05 3113,2663.5C 3111.76,2665.45 3109.92,2666.45 3107.5,2666.5C 3102.77,2665.99 3098.11,2665.16 3093.5,2664C 3085.13,2659.53 3076.79,2654.86 3068.5,2650C 2996.22,2598.09 2923.72,2546.25 2851,2494.5C 2850.33,2491.83 2850.33,2489.17 2851,2486.5C 2855.08,2473.37 2858.74,2460.03 2862,2446.5C 2866.4,2441.39 2870.56,2436.05 2874.5,2430.5C 2879.13,2420.63 2883.47,2410.63 2887.5,2400.5C 2895.16,2373.86 2902.49,2347.2 2909.5,2320.5C 2912.23,2296.48 2912.06,2272.48 2909,2248.5C 2904.57,2229.42 2900.4,2210.25 2896.5,2191C 2887.54,2164.55 2869.21,2149.05 2841.5,2144.5C 2818.23,2141.83 2794.9,2140.66 2771.5,2141C 2742.49,2142.33 2715.49,2150.33 2690.5,2165C 2673.51,2177.17 2661.17,2193 2653.5,2212.5C 2645.44,2224.72 2637.6,2237.06 2630,2249.5C 2624.38,2262.54 2619.88,2275.87 2616.5,2289.5C 2602.77,2288.02 2588.94,2287.36 2575,2287.5C 2546.21,2289.1 2517.37,2289.76 2488.5,2289.5C 2488.78,2280.26 2490.11,2271.26 2492.5,2262.5C 2489.7,2255.86 2485.87,2249.86 2481,2244.5C 2480.44,2242.13 2480.6,2239.8 2481.5,2237.5C 2482.84,2235.49 2483.84,2233.32 2484.5,2231C 2482.4,2227.23 2479.9,2223.73 2477,2220.5C 2475.6,2211.04 2473.6,2201.7 2471,2192.5C 2463.09,2170.5 2454.42,2148.83 2445,2127.5C 2429.79,2095.11 2409.29,2066.45 2383.5,2041.5C 2374.59,2034.02 2365.59,2026.52 2356.5,2019C 2341.53,2008.84 2326.19,1999.18 2310.5,1990C 2306.37,1986.94 2302.7,1983.44 2299.5,1979.5C 2302.34,1970.98 2305.34,1962.48 2308.5,1954C 2323.55,1919.4 2337.05,1884.23 2349,1848.5C 2356.93,1819.7 2361.77,1790.37 2363.5,1760.5C 2390.22,1756.98 2416.89,1753.15 2443.5,1749C 2520.18,1739.45 2597.18,1732.28 2674.5,1727.5C 2706.49,1726.33 2738.49,1726.17 2770.5,1727C 2794.35,1728.63 2818.35,1729.63 2842.5,1730C 2865.17,1730.67 2887.83,1730.67 2910.5,1730C 2853.84,1722.93 2797.17,1716.26 2740.5,1710C 2696.85,1708.46 2653.18,1708.13 2609.5,1709C 2546.05,1711.35 2482.55,1714.52 2419,1718.5C 2383.91,1722.99 2348.75,1727.49 2313.5,1732C 2244.29,1742.84 2174.96,1753.17 2105.5,1763C 2091.86,1764.42 2078.19,1764.75 2064.5,1764C 2048.67,1759.16 2033.67,1752.49 2019.5,1744C 1998.84,1736.67 1977.5,1733.34 1955.5,1734C 1957.67,1741.94 1959.33,1750.11 1960.5,1758.5C 1962.7,1764.9 1966.36,1770.24 1971.5,1774.5C 1971,1775.88 1970,1776.55 1968.5,1776.5C 1954.84,1771.58 1942,1765.25 1930,1757.5C 1929.83,1758 1929.67,1758.5 1929.5,1759C 1932.53,1771.31 1936.7,1783.14 1942,1794.5C 1943.75,1797.18 1945.42,1799.84 1947,1802.5C 1953.45,1809.82 1960.29,1816.82 1967.5,1823.5C 1968.25,1824.74 1968.58,1826.07 1968.5,1827.5C 1964.21,1827.05 1960.05,1826.05 1956,1824.5C 1946.52,1820.01 1937.86,1814.35 1930,1807.5C 1925.36,1801.86 1920.7,1796.19 1916,1790.5C 1907.55,1778.59 1899.88,1766.26 1893,1753.5C 1889.33,1748.83 1885.66,1744.16 1882,1739.5C 1877.43,1752.54 1874.59,1765.87 1873.5,1779.5C 1874.61,1800.24 1881.78,1818.57 1895,1834.5C 1909.47,1850.32 1925.97,1863.66 1944.5,1874.5C 1946.32,1875.73 1947.32,1877.39 1947.5,1879.5C 1919.42,1881.83 1896.42,1872.49 1878.5,1851.5C 1868.02,1836.08 1857.35,1820.74 1846.5,1805.5C 1838.21,1832.42 1840.21,1858.59 1852.5,1884C 1862.26,1898.08 1871.59,1912.42 1880.5,1927C 1884.74,1936.06 1887.41,1945.56 1888.5,1955.5C 1887.17,1955.5 1885.83,1955.5 1884.5,1955.5C 1881.24,1943.25 1874.24,1933.92 1863.5,1927.5C 1855.11,1925.1 1848.28,1920.43 1843,1913.5C 1839.74,1908.66 1836.74,1903.66 1834,1898.5C 1831.67,1893.69 1829.84,1888.69 1828.5,1883.5C 1825.82,1882.99 1823.16,1882.83 1820.5,1883C 1818.52,1885.15 1817.19,1887.65 1816.5,1890.5C 1816.17,1890 1815.83,1889.5 1815.5,1889C 1803.63,1849.45 1795.63,1809.12 1791.5,1768C 1791.88,1750.18 1796.05,1733.35 1804,1717.5C 1815.26,1696.64 1826.26,1675.64 1837,1654.5C 1842.55,1634.26 1850.22,1614.93 1860,1596.5C 1867.34,1586.16 1876.34,1577.49 1887,1570.5C 1902.24,1564.4 1917.41,1558.06 1932.5,1551.5C 1929.46,1547.46 1925.79,1544.12 1921.5,1541.5C 1920.52,1539.9 1920.35,1538.24 1921,1536.5C 1925.6,1528.9 1930.6,1521.57 1936,1514.5C 1942.48,1499.57 1948.82,1484.57 1955,1469.5C 1962.67,1462.85 1971.17,1457.35 1980.5,1453C 2008.7,1442.29 2037.7,1434.63 2067.5,1430C 2091.21,1428.65 2114.88,1426.99 2138.5,1425C 2127.18,1419.89 2115.52,1415.56 2103.5,1412C 2100.96,1410.23 2098.29,1408.73 2095.5,1407.5C 2095.71,1406.91 2096.04,1406.41 2096.5,1406C 2104.64,1404.88 2112.31,1402.38 2119.5,1398.5C 2123.89,1392.93 2128.56,1387.43 2133.5,1382C 2144.43,1377.88 2155.76,1375.21 2167.5,1374C 2199.9,1372.76 2232.24,1371.43 2264.5,1370C 2278.4,1369.3 2292.24,1368.13 2306,1366.5C 2316.22,1367.4 2326.39,1368.9 2336.5,1371C 2346.63,1374.34 2356.96,1377.18 2367.5,1379.5C 2368.67,1379.92 2369.67,1380.59 2370.5,1381.5C 2371.52,1381 2371.69,1380.33 2371,1379.5C 2361.03,1370.02 2349.86,1362.35 2337.5,1356.5C 2337.5,1355.17 2337.5,1353.83 2337.5,1352.5C 2355.14,1354.28 2372.81,1355.78 2390.5,1357C 2418.81,1369.6 2447.14,1382.1 2475.5,1394.5C 2476.17,1394.17 2476.83,1393.83 2477.5,1393.5C 2475.14,1390.3 2472.97,1386.97 2471,1383.5C 2466.58,1379.34 2462.41,1374.84 2458.5,1370C 2441.72,1357.96 2424.72,1346.46 2407.5,1335.5C 2407.5,1334.17 2407.5,1332.83 2407.5,1331.5C 2424.93,1333.13 2441.77,1337.46 2458,1344.5C 2474.33,1352.25 2490.16,1360.91 2505.5,1370.5C 2506.59,1369.61 2506.59,1368.61 2505.5,1367.5C 2500.45,1361.4 2496.45,1354.73 2493.5,1347.5C 2495.26,1347.36 2496.93,1347.69 2498.5,1348.5C 2513.52,1358.02 2528.69,1367.35 2544,1376.5C 2544.5,1376.17 2545,1375.83 2545.5,1375.5C 2540.32,1367.28 2534.32,1359.78 2527.5,1353C 2516.72,1344.22 2505.38,1336.22 2493.5,1329C 2488.63,1325.63 2484.63,1321.46 2481.5,1316.5 Z M 2697.5,1375.5 C 2708.51,1376.52 2719.51,1378.02 2730.5,1380C 2761.53,1390.19 2782.19,1411.03 2792.5,1442.5C 2783.84,1438.34 2776.51,1432.5 2770.5,1425C 2751.51,1409.98 2731.17,1396.65 2709.5,1385C 2705.86,1382.67 2702.19,1380.34 2698.5,1378C 2697.75,1377.33 2697.41,1376.5 2697.5,1375.5 Z M 2624.5,1385.5 C 2639.81,1389.73 2652.31,1398.06 2662,1410.5C 2664.14,1414.1 2665.97,1417.77 2667.5,1421.5C 2657.37,1415.97 2647.71,1409.8 2638.5,1403C 2633.26,1397.6 2628.6,1391.77 2624.5,1385.5 Z M 2919.5,1437.5 C 2922.57,1438.2 2925.57,1439.2 2928.5,1440.5C 2946.58,1452.43 2957.58,1469.26 2961.5,1491C 2962.96,1499.12 2963.46,1507.29 2963,1515.5C 2948.2,1489.57 2933.7,1463.57 2919.5,1437.5 Z M 2113.5,1517.5 C 2093.68,1513.75 2074.01,1509.59 2054.5,1505C 2030.54,1502.49 2006.54,1500.49 1982.5,1499C 1984.04,1497.89 1984.7,1496.39 1984.5,1494.5C 1993.2,1491.45 2002.2,1489.78 2011.5,1489.5C 2021.37,1490.11 2031.21,1491.11 2041,1492.5C 2056.55,1496.43 2072.05,1500.76 2087.5,1505.5C 2096.41,1509.24 2105.08,1513.24 2113.5,1517.5 Z M 1930.5,1596.5 C 1972.18,1593.85 2010.85,1603.35 2046.5,1625C 2030.76,1620.56 2014.76,1616.72 1998.5,1613.5C 1978.48,1610.79 1958.48,1610.96 1938.5,1614C 1924.64,1616.67 1910.8,1619.51 1897,1622.5C 1889.98,1624.5 1882.98,1626.5 1876,1628.5C 1875.5,1628.33 1875,1628.17 1874.5,1628C 1882.62,1614.88 1893.95,1605.88 1908.5,1601C 1915.45,1599.63 1922.45,1598.63 1929.5,1598C 1930.06,1597.62 1930.39,1597.12 1930.5,1596.5 Z"/></g>
<g><path style="opacity:0.978" fill="#fefffe" d="M 613.5,1420.5 C 652.167,1420.5 690.833,1420.5 729.5,1420.5C 729.333,1535.5 729.5,1650.5 730,1765.5C 730.592,1769.8 732.425,1773.47 735.5,1776.5C 738.531,1778.02 741.531,1779.52 744.5,1781C 803.832,1781.5 863.166,1781.67 922.5,1781.5C 922.5,1831.17 922.5,1880.83 922.5,1930.5C 819.5,1930.5 716.5,1930.5 613.5,1930.5C 613.5,1760.5 613.5,1590.5 613.5,1420.5 Z"/></g>
<g><path style="opacity:0.98" fill="#fefffe" d="M 1351.5,1420.5 C 1420.5,1420.33 1489.5,1420.5 1558.5,1421C 1581.94,1426.22 1597.94,1440.05 1606.5,1462.5C 1607.06,1464.82 1607.56,1467.15 1608,1469.5C 1608.5,1489.5 1608.67,1509.5 1608.5,1529.5C 1570.17,1529.5 1531.83,1529.5 1493.5,1529.5C 1498.33,1498.66 1485.33,1485.99 1454.5,1491.5C 1445.81,1491.53 1437.14,1491.86 1428.5,1492.5C 1422.82,1495.2 1418.98,1499.54 1417,1505.5C 1416.33,1519.83 1416.33,1534.17 1417,1548.5C 1418.96,1555.62 1423.46,1560.29 1430.5,1562.5C 1466.83,1563.33 1503.16,1563.83 1539.5,1564C 1554.64,1565.04 1568.3,1570.04 1580.5,1579C 1586.51,1584.84 1592.17,1591.01 1597.5,1597.5C 1602.48,1606.28 1605.98,1615.61 1608,1625.5C 1608.67,1707.5 1608.67,1789.5 1608,1871.5C 1606.03,1883.43 1601.36,1894.1 1594,1903.5C 1589.53,1907.97 1585.03,1912.47 1580.5,1917C 1569.47,1924.85 1557.14,1929.52 1543.5,1931C 1484.17,1931.67 1424.83,1931.67 1365.5,1931C 1330.91,1925.44 1309.41,1905.61 1301,1871.5C 1300.5,1828.83 1300.33,1786.17 1300.5,1743.5C 1339.17,1743.5 1377.83,1743.5 1416.5,1743.5C 1416.33,1758.84 1416.5,1774.17 1417,1789.5C 1419.84,1798 1425.67,1802.83 1434.5,1804C 1448.17,1804.67 1461.83,1804.67 1475.5,1804C 1484.08,1802.59 1489.74,1797.76 1492.5,1789.5C 1493.67,1767.51 1493.83,1745.51 1493,1723.5C 1490.83,1716 1486,1711.16 1478.5,1709C 1437.5,1708.67 1396.5,1708.33 1355.5,1708C 1326.79,1702.95 1308.62,1686.45 1301,1658.5C 1300.33,1595.5 1300.33,1532.5 1301,1469.5C 1302.41,1465.8 1303.58,1461.97 1304.5,1458C 1314.37,1438.3 1330.04,1425.8 1351.5,1420.5 Z"/></g>
<g><path style="opacity:0.978" fill="#fefffe" d="M 1009.5,1421.5 C 1079.01,1421.18 1148.51,1421.51 1218,1422.5C 1247.12,1430.62 1263.79,1449.62 1268,1479.5C 1268.67,1611.83 1268.67,1744.17 1268,1876.5C 1265,1901.07 1252.17,1918.57 1229.5,1929C 1225.2,1930.32 1220.87,1931.49 1216.5,1932.5C 1146.83,1933.83 1077.17,1933.83 1007.5,1932.5C 981.622,1927.14 964.789,1911.8 957,1886.5C 956.667,1883.5 956.333,1880.5 956,1877.5C 955.333,1744.17 955.333,1610.83 956,1477.5C 956.641,1470.58 958.308,1463.91 961,1457.5C 971.723,1438.29 987.89,1426.29 1009.5,1421.5 Z M 1087.5,1492.5 C 1103.5,1492.33 1119.5,1492.5 1135.5,1493C 1143.28,1495.46 1148.12,1500.63 1150,1508.5C 1150.67,1570.17 1150.67,1631.83 1150,1693.5C 1148.41,1696.35 1147.08,1699.35 1146,1702.5C 1142.55,1704.48 1139.05,1706.31 1135.5,1708C 1119.83,1708.67 1104.17,1708.67 1088.5,1708C 1080.31,1705.46 1075.48,1699.96 1074,1691.5C 1073.33,1630.83 1073.33,1570.17 1074,1509.5C 1075.2,1506.09 1076.7,1502.76 1078.5,1499.5C 1081.47,1496.88 1084.47,1494.55 1087.5,1492.5 Z"/></g>
<g><path style="opacity:0.94" fill="#fefffe" d="M 144.5,1987.5 C 165.409,1987.17 186.242,1987.51 207,1988.5C 207.5,2034.17 207.667,2079.83 207.5,2125.5C 186.167,2125.5 164.833,2125.5 143.5,2125.5C 143.172,2079.43 143.505,2033.43 144.5,1987.5 Z"/></g>
<g><path style="opacity:0.979" fill="#fefffe" d="M 229.5,1987.5 C 318.167,1987.33 406.834,1987.5 495.5,1988C 514.632,1990.65 528.632,2000.48 537.5,2017.5C 539.305,2023.05 540.638,2028.72 541.5,2034.5C 542.667,2089.5 542.833,2144.5 542,2199.5C 538.504,2222.03 526.004,2236.86 504.5,2244C 510.444,2246.64 516.111,2249.81 521.5,2253.5C 532.809,2262.77 539.475,2274.77 541.5,2289.5C 542.667,2344.5 542.833,2399.5 542,2454.5C 538.91,2475.64 527.41,2490.31 507.5,2498.5C 505.181,2499.06 502.847,2499.56 500.5,2500C 410.167,2500.5 319.834,2500.67 229.5,2500.5C 229.5,2329.5 229.5,2158.5 229.5,1987.5 Z M 338.5,2133.5 C 360.233,2133.03 381.9,2133.53 403.5,2135C 408.036,2136.87 411.202,2140.04 413,2144.5C 414.597,2158.78 414.93,2173.11 414,2187.5C 412.825,2194.67 408.992,2199.84 402.5,2203C 381.206,2204.43 359.873,2204.93 338.5,2204.5C 338.5,2180.83 338.5,2157.17 338.5,2133.5 Z M 338.5,2276.5 C 357.836,2276.33 377.17,2276.5 396.5,2277C 406.083,2277.92 411.916,2283.08 414,2292.5C 414.167,2299.67 414.333,2306.83 414.5,2314C 414.604,2322.56 414.104,2331.06 413,2339.5C 411.31,2344.87 407.81,2348.54 402.5,2350.5C 381.193,2351.48 359.86,2351.81 338.5,2351.5C 338.5,2326.5 338.5,2301.5 338.5,2276.5 Z"/></g>
<g><path style="opacity:0.978" fill="#fefffe" d="M 1261.5,1987.5 C 1364.5,1987.33 1467.5,1987.5 1570.5,1988C 1571.5,2061.43 1571.83,2134.93 1571.5,2208.5C 1541.17,2208.5 1510.83,2208.5 1480.5,2208.5C 1480.5,2305.83 1480.5,2403.17 1480.5,2500.5C 1437.5,2500.5 1394.5,2500.5 1351.5,2500.5C 1351.5,2403.17 1351.5,2305.83 1351.5,2208.5C 1321.17,2208.5 1290.83,2208.5 1260.5,2208.5C 1260.17,2134.76 1260.5,2061.1 1261.5,1987.5 Z"/></g>
<g><path style="opacity:0.976" fill="#fefffe" d="M 2003.5,1987.5 C 2068.83,1987.33 2134.17,1987.5 2199.5,1988C 2221.82,1991.07 2238.65,2002.23 2250,2021.5C 2254.03,2030.01 2256.03,2039.01 2256,2048.5C 2256.82,2065.07 2256.66,2081.57 2255.5,2098C 2217.5,2098.67 2179.5,2098.67 2141.5,2098C 2140.85,2089.89 2140.18,2081.72 2139.5,2073.5C 2137.73,2067.57 2134.07,2063.41 2128.5,2061C 2112.87,2059.43 2097.21,2059.1 2081.5,2060C 2072.62,2061.19 2066.79,2066.02 2064,2074.5C 2063.2,2089.19 2063.37,2103.86 2064.5,2118.5C 2067.7,2125.54 2073.03,2129.71 2080.5,2131C 2117.83,2131.33 2155.17,2131.67 2192.5,2132C 2205.73,2134.63 2217.73,2139.96 2228.5,2148C 2240.5,2158.37 2249,2171.2 2254,2186.5C 2255.07,2192.45 2255.74,2198.45 2256,2204.5C 2256.67,2278.83 2256.67,2353.17 2256,2427.5C 2256.18,2449.46 2248.01,2467.46 2231.5,2481.5C 2220.9,2490.1 2208.9,2495.93 2195.5,2499C 2133.17,2499.67 2070.83,2499.67 2008.5,2499C 1975.57,2491.4 1955.4,2471.24 1948,2438.5C 1947.5,2396.17 1947.33,2353.83 1947.5,2311.5C 1986.17,2311.5 2024.83,2311.5 2063.5,2311.5C 2063.33,2326.5 2063.5,2341.5 2064,2356.5C 2065.56,2364.23 2070.06,2369.23 2077.5,2371.5C 2093.49,2372.67 2109.49,2372.83 2125.5,2372C 2127.63,2370.62 2129.97,2369.62 2132.5,2369C 2133.33,2366.83 2134.83,2365.33 2137,2364.5C 2137.62,2361.97 2138.62,2359.63 2140,2357.5C 2140.83,2335.16 2140.67,2312.83 2139.5,2290.5C 2136.57,2282.39 2130.91,2277.89 2122.5,2277C 2081.5,2276.67 2040.5,2276.33 1999.5,2276C 1977.19,2271.69 1961.36,2259.19 1952,2238.5C 1950.68,2234.2 1949.51,2229.87 1948.5,2225.5C 1947.17,2163.17 1947.17,2100.83 1948.5,2038.5C 1951.2,2024.81 1957.53,2013.31 1967.5,2004C 1973.32,1999.23 1979.66,1995.23 1986.5,1992C 1992.5,1990.76 1998.17,1989.26 2003.5,1987.5 Z"/></g>
<g><path style="opacity:0.978" fill="#fefffe" d="M 574.5,1990.5 C 664.501,1990.33 754.501,1990.5 844.5,1991C 851.223,1992.69 857.556,1995.35 863.5,1999C 870.426,2004.92 876.259,2011.76 881,2019.5C 882.19,2023.94 883.524,2028.28 885,2032.5C 885.667,2089.5 885.667,2146.5 885,2203.5C 880.159,2223.67 867.992,2237.17 848.5,2244C 853.59,2246.48 858.59,2249.14 863.5,2252C 874.979,2260.14 881.979,2271.31 884.5,2285.5C 885.5,2356.83 885.833,2428.16 885.5,2499.5C 844.167,2499.5 802.833,2499.5 761.5,2499.5C 761.667,2457.5 761.5,2415.5 761,2373.5C 760.503,2362.01 754.669,2355.18 743.5,2353C 724.17,2352.5 704.836,2352.33 685.5,2352.5C 685.5,2401.5 685.5,2450.5 685.5,2499.5C 648.5,2499.5 611.5,2499.5 574.5,2499.5C 574.5,2329.83 574.5,2160.17 574.5,1990.5 Z M 685.5,2060.5 C 705.836,2060.33 726.169,2060.5 746.5,2061C 755.575,2064.31 760.408,2070.81 761,2080.5C 761.667,2115.17 761.667,2149.83 761,2184.5C 761.16,2190.7 758.994,2195.86 754.5,2200C 752.381,2202.39 749.715,2203.73 746.5,2204C 726.169,2204.5 705.836,2204.67 685.5,2204.5C 685.5,2156.5 685.5,2108.5 685.5,2060.5 Z"/></g>
<g><path style="opacity:0.983" fill="#fefffe" d="M 917.5,1990.5 C 956.5,1990.5 995.5,1990.5 1034.5,1990.5C 1034.33,2077.83 1034.5,2165.17 1035,2252.5C 1035.42,2263.92 1041.25,2270.76 1052.5,2273C 1067.88,2273.92 1083.21,2273.58 1098.5,2272C 1105.11,2269.29 1109.27,2264.46 1111,2257.5C 1111.5,2168.5 1111.67,2079.5 1111.5,1990.5C 1150.5,1990.5 1189.5,1990.5 1228.5,1990.5C 1228.67,2143.83 1228.5,2297.17 1228,2450.5C 1221.12,2475.05 1205.45,2491.05 1181,2498.5C 1145.02,2499.16 1109.02,2499.49 1073,2499.5C 1036.13,2499.65 999.296,2499.15 962.5,2498C 938.513,2489.5 923.846,2472.67 918.5,2447.5C 917.5,2295.17 917.167,2142.83 917.5,1990.5 Z"/></g>
<g><path style="opacity:0.986" fill="#fefffe" d="M 1652.5,1990.5 C 1723.5,1990.33 1794.5,1990.5 1865.5,1991C 1873.76,1992.98 1881.43,1996.31 1888.5,2001C 1903.28,2011.71 1912.12,2026.21 1915,2044.5C 1915.67,2178.83 1915.67,2313.17 1915,2447.5C 1912.36,2465.87 1903.52,2480.37 1888.5,2491C 1884.33,2493.59 1879.99,2495.92 1875.5,2498C 1869.97,2499.73 1864.3,2500.73 1858.5,2501C 1789.15,2501.97 1719.81,2501.64 1650.5,2500C 1625.92,2493.08 1610.42,2477.25 1604,2452.5C 1603.33,2314.5 1603.33,2176.5 1604,2038.5C 1608.87,2020.09 1619.54,2006.09 1636,1996.5C 1641.27,1993.58 1646.77,1991.58 1652.5,1990.5 Z M 1738.5,2060.5 C 1753.36,2060.21 1768.19,2060.54 1783,2061.5C 1789.95,2063.29 1794.45,2067.62 1796.5,2074.5C 1797.67,2137.16 1797.83,2199.83 1797,2262.5C 1793.88,2270.62 1788.05,2275.45 1779.5,2277C 1764.98,2277.79 1750.48,2277.63 1736,2276.5C 1733.22,2275.07 1730.38,2273.74 1727.5,2272.5C 1725.67,2269.5 1723.83,2266.5 1722,2263.5C 1720.36,2202.53 1720.02,2141.53 1721,2080.5C 1721.59,2075.45 1723.25,2070.79 1726,2066.5C 1730.12,2064.02 1734.28,2062.02 1738.5,2060.5 Z"/></g>
<g><path style="opacity:0.983" fill="#fefffe" d="M 2552.5,2337.5 C 2576.18,2337.83 2599.85,2338.5 2623.5,2339.5C 2625.85,2357.77 2627.68,2376.1 2629,2394.5C 2640.34,2438.93 2647.18,2483.93 2649.5,2529.5C 2648.06,2550.09 2646.23,2570.75 2644,2591.5C 2637.64,2627.65 2632.14,2663.98 2627.5,2700.5C 2621.84,2700.09 2616.17,2699.76 2610.5,2699.5C 2607.89,2721.37 2606.22,2743.37 2605.5,2765.5C 2590.71,2769.7 2576.71,2775.7 2563.5,2783.5C 2558.85,2786.98 2554.69,2790.98 2551,2795.5C 2546.56,2802.74 2541.89,2809.74 2537,2816.5C 2499.63,2858.42 2456.8,2893.59 2408.5,2922C 2390.17,2935.96 2371.17,2949.29 2351.5,2962C 2338.99,2974.06 2325.65,2984.89 2311.5,2994.5C 2303.97,2997.98 2295.97,2999.48 2287.5,2999C 2283.06,2999.53 2278.72,3000.53 2274.5,3002C 2260.19,3009.15 2246.19,3016.82 2232.5,3025C 2215.85,3031.62 2198.68,3036.79 2181,3040.5C 2163.84,3049.25 2146.17,3056.91 2128,3063.5C 2116.9,3065.36 2105.73,3065.86 2094.5,3065C 2081.07,3062.3 2067.57,3059.8 2054,3057.5C 2050.42,3059.4 2046.58,3060.4 2042.5,3060.5C 2042.5,3061.5 2042.5,3062.5 2042.5,3063.5C 2005.08,3058.64 1974.75,3041.64 1951.5,3012.5C 1944.22,3000.39 1939.22,2987.39 1936.5,2973.5C 1931.63,2976.44 1926.63,2979.1 1921.5,2981.5C 1918.88,2951 1918.88,2920.5 1921.5,2890C 1926.38,2854.33 1941.72,2823.99 1967.5,2799C 1969.53,2796.99 1971.87,2795.49 1974.5,2794.5C 1982.22,2805.26 1989.22,2816.59 1995.5,2828.5C 2005.6,2841.46 2015.6,2854.62 2025.5,2868C 2030.67,2869.88 2036,2871.05 2041.5,2871.5C 2054.72,2869.87 2067.72,2867.2 2080.5,2863.5C 2112.88,2845.07 2126.38,2817.07 2121,2779.5C 2117.66,2758.8 2108.16,2741.8 2092.5,2728.5C 2077.5,2718.32 2061.83,2709.15 2045.5,2701C 2029.08,2694.08 2012.41,2687.75 1995.5,2682C 1963.58,2667.08 1931.58,2652.24 1899.5,2637.5C 1899.17,2636.33 1898.83,2635.17 1898.5,2634C 1900.88,2619.71 1904.21,2605.71 1908.5,2592C 1912.45,2584.18 1918.78,2579.52 1927.5,2578C 1939.58,2576.17 1951.58,2576.67 1963.5,2579.5C 1991.8,2588.32 2017.8,2601.32 2041.5,2618.5C 2056.21,2629.54 2068.87,2642.54 2079.5,2657.5C 2083.68,2665.2 2087.18,2673.2 2090,2681.5C 2095.99,2692.81 2105.49,2699.15 2118.5,2700.5C 2126.17,2710.34 2135.5,2718.17 2146.5,2724C 2148.9,2724.81 2151.24,2724.65 2153.5,2723.5C 2161.07,2720.06 2168.73,2716.9 2176.5,2714C 2184.84,2711.66 2193.17,2709.33 2201.5,2707C 2230.49,2688.38 2259.83,2670.05 2289.5,2652C 2298.94,2646.36 2308.61,2641.19 2318.5,2636.5C 2327.36,2630.12 2336.03,2623.62 2344.5,2617C 2351.82,2609.68 2359.49,2602.68 2367.5,2596C 2370.05,2595.34 2372.55,2595.51 2375,2596.5C 2377.6,2598.55 2380.1,2600.72 2382.5,2603C 2386.06,2604.75 2389.39,2604.25 2392.5,2601.5C 2403.65,2589.49 2413.15,2576.15 2421,2561.5C 2428.53,2555.31 2436.36,2549.48 2444.5,2544C 2456.6,2530.48 2468.93,2517.14 2481.5,2504C 2483.75,2503.38 2485.42,2502.04 2486.5,2500C 2495.8,2499.11 2501.97,2494.27 2505,2485.5C 2508.81,2474.6 2512.14,2463.6 2515,2452.5C 2516.53,2416.06 2514.03,2380.06 2507.5,2344.5C 2522.49,2341.88 2537.49,2339.55 2552.5,2337.5 Z"/></g>
<g><path style="opacity:0.904" fill="#fefffe" d="M 324.5,2598.5 C 336.505,2598.33 348.505,2598.5 360.5,2599C 381.586,2604.33 388.753,2617.49 382,2638.5C 380.289,2641.26 378.122,2643.59 375.5,2645.5C 389.864,2653.71 395.031,2666.05 391,2682.5C 387.848,2692.01 381.682,2698.84 372.5,2703C 356.557,2704.44 340.557,2704.94 324.5,2704.5C 324.5,2669.17 324.5,2633.83 324.5,2598.5 Z M 346.5,2618.5 C 354.409,2618.13 360.076,2621.46 363.5,2628.5C 360.763,2636.71 355.096,2640.04 346.5,2638.5C 346.5,2631.83 346.5,2625.17 346.5,2618.5 Z M 346.5,2659.5 C 355.284,2658.35 362.617,2660.85 368.5,2667C 370.995,2673.51 369.328,2678.51 363.5,2682C 357.877,2683.03 352.21,2683.53 346.5,2683.5C 346.5,2675.5 346.5,2667.5 346.5,2659.5 Z"/></g>
<g><path style="opacity:0.881" fill="#fefffe" d="M 520.5,2598.5 C 528.167,2598.5 535.833,2598.5 543.5,2598.5C 555.32,2631.46 567.82,2664.13 581,2696.5C 582.079,2699.06 582.579,2701.73 582.5,2704.5C 574.833,2704.5 567.167,2704.5 559.5,2704.5C 556.978,2697.6 554.645,2690.6 552.5,2683.5C 538.829,2683.33 525.163,2683.5 511.5,2684C 510.299,2684.9 509.465,2686.07 509,2687.5C 506.675,2692.98 504.842,2698.64 503.5,2704.5C 495.5,2704.5 487.5,2704.5 479.5,2704.5C 483.985,2691.93 488.485,2679.27 493,2666.5C 502.417,2643.92 511.584,2621.26 520.5,2598.5 Z M 530.5,2631.5 C 531.315,2632.43 532.148,2633.43 533,2634.5C 536.314,2643.45 539.814,2652.28 543.5,2661C 535.5,2661.67 527.5,2661.67 519.5,2661C 523.674,2651.31 527.341,2641.47 530.5,2631.5 Z"/></g>
<g><path style="opacity:0.893" fill="#fefffe" d="M 677.5,2598.5 C 692.883,2598.08 708.216,2598.58 723.5,2600C 734.554,2604.45 740.72,2612.62 742,2624.5C 743.786,2640.68 737.286,2652.02 722.5,2658.5C 728.092,2668.1 733.592,2677.77 739,2687.5C 741.997,2693.01 744.497,2698.67 746.5,2704.5C 738.167,2704.5 729.833,2704.5 721.5,2704.5C 714.793,2690.34 707.626,2676.34 700,2662.5C 699.5,2676.5 699.333,2690.5 699.5,2704.5C 692.167,2704.5 684.833,2704.5 677.5,2704.5C 677.5,2669.17 677.5,2633.83 677.5,2598.5 Z M 699.5,2620.5 C 705.262,2620.15 710.928,2620.65 716.5,2622C 722.135,2627.99 721.468,2633.16 714.5,2637.5C 709.544,2638.39 704.544,2638.73 699.5,2638.5C 699.5,2632.5 699.5,2626.5 699.5,2620.5 Z"/></g>
<g><path style="opacity:0.892" fill="#fefffe" d="M 839.5,2598.5 C 851.838,2598.33 864.171,2598.5 876.5,2599C 896.796,2604 904.129,2616.66 898.5,2637C 896.751,2640.34 894.418,2643.17 891.5,2645.5C 908.599,2656.64 912.766,2671.64 904,2690.5C 900.248,2696.45 895.081,2700.62 888.5,2703C 872.215,2704.42 855.882,2704.92 839.5,2704.5C 839.5,2669.17 839.5,2633.83 839.5,2598.5 Z M 861.5,2618.5 C 866.655,2617.89 871.322,2619.06 875.5,2622C 879.913,2628.02 879.079,2633.19 873,2637.5C 869.224,2638.39 865.39,2638.73 861.5,2638.5C 861.5,2631.83 861.5,2625.17 861.5,2618.5 Z M 861.5,2659.5 C 867.445,2659.24 873.278,2659.9 879,2661.5C 887.979,2667.96 888.312,2674.63 880,2681.5C 873.945,2683.13 867.778,2683.8 861.5,2683.5C 861.5,2675.5 861.5,2667.5 861.5,2659.5 Z"/></g>
<g><path style="opacity:0.886" fill="#fefffe" d="M 1004.5,2598.5 C 1024.5,2598.5 1044.5,2598.5 1064.5,2598.5C 1064.81,2605.75 1064.48,2612.92 1063.5,2620C 1051.17,2620.5 1038.84,2620.67 1026.5,2620.5C 1026.5,2625.5 1026.5,2630.5 1026.5,2635.5C 1039.17,2635.5 1051.83,2635.5 1064.5,2635.5C 1064.5,2642.83 1064.5,2650.17 1064.5,2657.5C 1051.83,2657.5 1039.17,2657.5 1026.5,2657.5C 1026.5,2665.83 1026.5,2674.17 1026.5,2682.5C 1039.17,2682.5 1051.83,2682.5 1064.5,2682.5C 1064.5,2689.83 1064.5,2697.17 1064.5,2704.5C 1044.5,2704.5 1024.5,2704.5 1004.5,2704.5C 1004.5,2669.17 1004.5,2633.83 1004.5,2598.5 Z"/></g>
<g><path style="opacity:0.88" fill="#fefffe" d="M 1191.5,2598.5 C 1199.5,2598.5 1207.5,2598.5 1215.5,2598.5C 1228.2,2633.98 1241.2,2669.31 1254.5,2704.5C 1246.5,2704.5 1238.5,2704.5 1230.5,2704.5C 1228.53,2697.54 1226.19,2690.71 1223.5,2684C 1209.82,2683.17 1196.15,2683.33 1182.5,2684.5C 1179.52,2691.1 1176.86,2697.76 1174.5,2704.5C 1166.83,2704.5 1159.17,2704.5 1151.5,2704.5C 1151.42,2701.73 1151.92,2699.06 1153,2696.5C 1166.1,2663.95 1178.94,2631.29 1191.5,2598.5 Z M 1202.5,2631.5 C 1206.69,2640.36 1210.35,2649.53 1213.5,2659C 1213.91,2659.95 1214.57,2660.61 1215.5,2661C 1207.51,2661.5 1199.51,2661.67 1191.5,2661.5C 1194.38,2651.19 1198.05,2641.19 1202.5,2631.5 Z"/></g>
<g><path style="opacity:0.878" fill="#fefffe" d="M 1348.5,2598.5 C 1362.5,2598.33 1376.5,2598.5 1390.5,2599C 1404.01,2602.18 1411.51,2610.68 1413,2624.5C 1415.37,2640.77 1409.21,2652.1 1394.5,2658.5C 1401.28,2671.45 1408.28,2684.28 1415.5,2697C 1416.87,2699.32 1417.54,2701.82 1417.5,2704.5C 1409.5,2704.5 1401.5,2704.5 1393.5,2704.5C 1386.11,2691 1378.95,2677.33 1372,2663.5C 1371.5,2677.16 1371.33,2690.83 1371.5,2704.5C 1363.83,2704.5 1356.17,2704.5 1348.5,2704.5C 1348.5,2669.17 1348.5,2633.83 1348.5,2598.5 Z M 1371.5,2620.5 C 1376.18,2620.33 1380.85,2620.5 1385.5,2621C 1392.65,2625.45 1393.32,2630.78 1387.5,2637C 1382.26,2638.34 1376.93,2638.84 1371.5,2638.5C 1371.5,2632.5 1371.5,2626.5 1371.5,2620.5 Z"/></g>
<g><path style="opacity:0.935" fill="#fefffe" d="M 1510.5,2598.5 C 1517.83,2598.5 1525.17,2598.5 1532.5,2598.5C 1532.5,2633.83 1532.5,2669.17 1532.5,2704.5C 1525.17,2704.5 1517.83,2704.5 1510.5,2704.5C 1510.5,2669.17 1510.5,2633.83 1510.5,2598.5 Z"/></g>
<g><path style="opacity:0.908" fill="#fefffe" d="M 1663.5,2598.5 C 1671.42,2598.18 1679.25,2598.52 1687,2599.5C 1700.94,2634.27 1714.1,2669.27 1726.5,2704.5C 1718.83,2704.67 1711.16,2704.5 1703.5,2704C 1700.6,2697.24 1697.94,2690.4 1695.5,2683.5C 1681.83,2683.5 1668.17,2683.5 1654.5,2683.5C 1652.06,2690.41 1649.4,2697.24 1646.5,2704C 1638.84,2704.5 1631.17,2704.67 1623.5,2704.5C 1624.02,2701.11 1624.86,2697.78 1626,2694.5C 1638.77,2662.62 1651.27,2630.62 1663.5,2598.5 Z M 1674.5,2631.5 C 1678.94,2640.81 1682.94,2650.48 1686.5,2660.5C 1678.83,2661.83 1671.17,2661.83 1663.5,2660.5C 1667.38,2650.86 1671.05,2641.19 1674.5,2631.5 Z"/></g>
<g><path style="opacity:0.889" fill="#fefffe" d="M 1778.5,2629.5 C 1794.64,2626.37 1803.97,2632.7 1806.5,2648.5C 1805.17,2661.18 1798.17,2667.84 1785.5,2668.5C 1771.23,2666.79 1764.73,2658.79 1766,2644.5C 1767.92,2637.5 1772.09,2632.5 1778.5,2629.5 Z"/></g>
<g><path style="opacity:0.851" fill="#fefffe" d="M 229.5,2631.5 C 247.375,2633.26 254.542,2642.92 251,2660.5C 241.342,2674.35 230.009,2676.02 217,2665.5C 211.89,2657.95 211.223,2649.95 215,2641.5C 216.597,2638.78 218.763,2636.61 221.5,2635C 224.572,2634.42 227.239,2633.25 229.5,2631.5 Z"/></g>
</svg>
